<svg xmlns="http://www.w3.org/2000/svg" viewBox="0 0 2400 1200" fill="none">
  <defs>
    <linearGradient id="bg" x1="180" y1="90" x2="2140" y2="1120" gradientUnits="userSpaceOnUse">
      <stop stop-color="#060505"/>
      <stop offset="1" stop-color="#130905"/>
    </linearGradient>
    <radialGradient id="halo" cx="0" cy="0" r="1" gradientUnits="userSpaceOnUse" gradientTransform="translate(1730 300) rotate(90) scale(440)">
      <stop stop-color="#FF7B3F"/>
      <stop offset="1" stop-color="#FF7B3F" stop-opacity="0"/>
    </radialGradient>
    <filter id="blur" x="-30%" y="-30%" width="160%" height="160%">
      <feGaussianBlur stdDeviation="70"/>
    </filter>
  </defs>

  <rect width="2400" height="1200" rx="38" fill="url(#bg)"/>
  <rect x="24" y="24" width="2352" height="1152" rx="30" stroke="#FFFFFF" stroke-opacity="0.10"/>
  <circle cx="1730" cy="300" r="360" fill="url(#halo)" filter="url(#blur)"/>

  <g opacity="0.10" stroke="#FFFFFF" stroke-width="2">
    <path d="M420 120H2260"/>
    <path d="M420 330H2260"/>
    <path d="M420 540H2260"/>
    <path d="M420 750H2260"/>
    <path d="M420 960H2260"/>
    <path d="M700 70V1130"/>
    <path d="M1100 70V1130"/>
    <path d="M1500 70V1130"/>
    <path d="M1900 70V1130"/>
  </g>

  <rect x="1540" y="86" width="250" height="46" rx="23" fill="#FFFFFF" fill-opacity="0.08" stroke="#FFFFFF" stroke-opacity="0.14"/>
  <circle cx="1590" cy="109" r="8" fill="#FF8E4A"/>
  <rect x="1612" y="102" width="102" height="14" rx="7" fill="#FFFFFF" fill-opacity="0.38"/>

  <g transform="translate(1160 120)">
  <path d="M226 266c30-108 116-178 236-178 118 0 220 64 274 166 24-12 52-18 84-18 130 0 236 92 236 206 0 112-96 202-214 202H220c-122 0-220-84-220-190 0-96 82-178 180-188 28-106 120-148 146-148" stroke="#FFAA63" stroke-width="24" fill="none" stroke-linecap="round" stroke-linejoin="round"/>
  <rect x="44" y="638" width="970" height="248" rx="42" fill="#08121A" stroke="#FFFFFF" stroke-opacity="0.14"/>
  <rect x="104" y="706" width="252" height="30" rx="15" fill="#FFAA63" fill-opacity="0.54"/>
  <rect x="104" y="762" width="436" height="16" rx="8" fill="#FFFFFF" fill-opacity="0.20"/>
  <rect x="104" y="798" width="312" height="16" rx="8" fill="#FFFFFF" fill-opacity="0.10"/>
  <path d="M748 458 626 650M860 512 770 690M626 650 552 764" stroke="#FF7B3F" stroke-width="12" stroke-linecap="round"/>
  <circle cx="748" cy="458" r="16" fill="#FF7B3F"/>
  <circle cx="860" cy="512" r="16" fill="#FFE0C6"/>
  <circle cx="770" cy="690" r="16" fill="#FFE0C6"/>
  <circle cx="552" cy="764" r="16" fill="#FFE0C6"/>
</g>
</svg>
