<svg xmlns="http://www.w3.org/2000/svg" viewBox="0 0 2400 1200" fill="none">
  <defs>
    <linearGradient id="bg" x1="180" y1="90" x2="2140" y2="1120" gradientUnits="userSpaceOnUse">
      <stop stop-color="#070506"/>
      <stop offset="1" stop-color="#140A10"/>
    </linearGradient>
    <radialGradient id="halo" cx="0" cy="0" r="1" gradientUnits="userSpaceOnUse" gradientTransform="translate(1720 300) rotate(90) scale(430)">
      <stop stop-color="#FF4F7E" stop-opacity="0.58"/>
      <stop offset="1" stop-color="#FF4F7E" stop-opacity="0"/>
    </radialGradient>
    <filter id="blur" x="-30%" y="-30%" width="160%" height="160%">
      <feGaussianBlur stdDeviation="74"/>
    </filter>
    <linearGradient id="shield" x1="440" y1="232" x2="440" y2="864" gradientUnits="userSpaceOnUse">
      <stop stop-color="#161018"/>
      <stop offset="1" stop-color="#0B080D"/>
    </linearGradient>
    <linearGradient id="edge" x1="166" y1="240" x2="698" y2="792" gradientUnits="userSpaceOnUse">
      <stop stop-color="#FF6A93"/>
      <stop offset="1" stop-color="#FFAC62"/>
    </linearGradient>
  </defs>

  <rect width="2400" height="1200" rx="38" fill="url(#bg)"/>
  <rect x="24" y="24" width="2352" height="1152" rx="30" stroke="#FFFFFF" stroke-opacity="0.10"/>
  <circle cx="1720" cy="300" r="360" fill="url(#halo)" filter="url(#blur)"/>

  <g opacity="0.1" stroke="#FFFFFF" stroke-width="2">
    <path d="M420 120H2260"/>
    <path d="M420 330H2260"/>
    <path d="M420 540H2260"/>
    <path d="M420 750H2260"/>
    <path d="M420 960H2260"/>
    <path d="M700 70V1130"/>
    <path d="M1100 70V1130"/>
    <path d="M1500 70V1130"/>
    <path d="M1900 70V1130"/>
  </g>

  <rect x="1540" y="86" width="250" height="46" rx="23" fill="#FFFFFF" fill-opacity="0.08" stroke="#FFFFFF" stroke-opacity="0.14"/>
  <circle cx="1590" cy="109" r="8" fill="#FF5C70"/>
  <rect x="1612" y="102" width="102" height="14" rx="7" fill="#FFFFFF" fill-opacity="0.38"/>

  <g transform="translate(1260 118)">
    <circle cx="430" cy="428" r="262" stroke="#FF5C70" stroke-width="2" stroke-opacity="0.18"/>
    <circle cx="430" cy="428" r="206" stroke="#FFFFFF" stroke-width="2" stroke-opacity="0.14" stroke-dasharray="18 18"/>
    <circle cx="430" cy="428" r="146" stroke="#FFB16B" stroke-width="2" stroke-opacity="0.24"/>

    <path d="M430 170 674 268v186c0 168-108 292-244 356-136-64-244-188-244-356V268Z" fill="url(#shield)" stroke="url(#edge)" stroke-width="24" stroke-linejoin="round"/>
    <rect x="330" y="404" width="200" height="180" rx="36" fill="#120D12" stroke="#FFFFFF" stroke-opacity="0.14"/>
    <path d="M372 404v-44c0-32 26-58 58-58 32 0 58 26 58 58v44" stroke="#FFB16B" stroke-width="20" stroke-linecap="round"/>
    <circle cx="430" cy="488" r="18" fill="#FF5C70"/>
    <path d="M430 506v40" stroke="#FF5C70" stroke-width="14" stroke-linecap="round"/>

    <circle cx="724" cy="350" r="16" fill="#FF5C70"/>
    <circle cx="794" cy="500" r="15" fill="#FFB16B"/>
    <circle cx="702" cy="644" r="14" fill="#FFFFFF" fill-opacity="0.56"/>
    <circle cx="146" cy="344" r="16" fill="#FF5C70"/>
    <circle cx="82" cy="490" r="15" fill="#FFB16B"/>
    <circle cx="170" cy="638" r="14" fill="#FFFFFF" fill-opacity="0.56"/>

    <path d="M656 332 724 350M650 444 794 500M598 556 702 644M214 344 146 344M208 444 82 490M262 556 170 638" stroke="#FF5C70" stroke-width="10" stroke-linecap="round"/>
  </g>
</svg>
