<svg xmlns="http://www.w3.org/2000/svg" viewBox="0 0 2400 1200" fill="none">
  <defs>
    <linearGradient id="bg" x1="180" y1="90" x2="2140" y2="1120" gradientUnits="userSpaceOnUse">
      <stop stop-color="#040706"/>
      <stop offset="1" stop-color="#07110B"/>
    </linearGradient>
    <radialGradient id="halo" cx="0" cy="0" r="1" gradientUnits="userSpaceOnUse" gradientTransform="translate(1730 300) rotate(90) scale(440)">
      <stop stop-color="#2AB56D"/>
      <stop offset="1" stop-color="#2AB56D" stop-opacity="0"/>
    </radialGradient>
    <filter id="blur" x="-30%" y="-30%" width="160%" height="160%">
      <feGaussianBlur stdDeviation="70"/>
    </filter>
  </defs>

  <rect width="2400" height="1200" rx="38" fill="url(#bg)"/>
  <rect x="24" y="24" width="2352" height="1152" rx="30" stroke="#FFFFFF" stroke-opacity="0.10"/>
  <circle cx="1730" cy="300" r="360" fill="url(#halo)" filter="url(#blur)"/>

  <g opacity="0.10" stroke="#FFFFFF" stroke-width="2">
    <path d="M420 120H2260"/>
    <path d="M420 330H2260"/>
    <path d="M420 540H2260"/>
    <path d="M420 750H2260"/>
    <path d="M420 960H2260"/>
    <path d="M700 70V1130"/>
    <path d="M1100 70V1130"/>
    <path d="M1500 70V1130"/>
    <path d="M1900 70V1130"/>
  </g>

  <rect x="1540" y="86" width="250" height="46" rx="23" fill="#FFFFFF" fill-opacity="0.08" stroke="#FFFFFF" stroke-opacity="0.14"/>
  <circle cx="1590" cy="109" r="8" fill="#7CF073"/>
  <rect x="1612" y="102" width="102" height="14" rx="7" fill="#FFFFFF" fill-opacity="0.38"/>

  <g transform="translate(1160 110)">
  <rect x="0" y="118" width="1010" height="822" rx="48" fill="#08120C" stroke="#FFFFFF" stroke-opacity="0.14"/>
  <rect x="60" y="182" width="214" height="30" rx="15" fill="#7CF073" fill-opacity="0.50"/>
  <rect x="60" y="238" width="432" height="16" rx="8" fill="#FFFFFF" fill-opacity="0.20"/>
  <rect x="60" y="272" width="306" height="16" rx="8" fill="#FFFFFF" fill-opacity="0.10"/>
  <rect x="60" y="336" width="888" height="430" rx="34" fill="#040906" fill-opacity="0.82" stroke="#FFFFFF" stroke-opacity="0.08"/>
  <path d="M140 470 218 542 140 612" stroke="#7CF073" stroke-width="20" stroke-linecap="round" stroke-linejoin="round"/>
  <path d="M284 630h224" stroke="#7CF073" stroke-width="20" stroke-linecap="round"/>
  <rect x="646" y="432" width="222" height="118" rx="24" fill="#0D1811" stroke="#FFFFFF" stroke-opacity="0.08"/>
  <rect x="646" y="590" width="222" height="118" rx="24" fill="#0D1811" stroke="#FFFFFF" stroke-opacity="0.08"/>
  <circle cx="818" cy="488" r="10" fill="#7CF073"/>
  <circle cx="818" cy="646" r="10" fill="#7CF073"/>
</g>
</svg>
