<svg xmlns="http://www.w3.org/2000/svg" viewBox="0 0 1600 2400" fill="none">
  <defs>
    <linearGradient id="bg" x1="180" y1="120" x2="1400" y2="2300" gradientUnits="userSpaceOnUse">
      <stop stop-color="#05070D"/>
      <stop offset="1" stop-color="#0E0C19"/>
    </linearGradient>
    <radialGradient id="haloA" cx="0" cy="0" r="1" gradientUnits="userSpaceOnUse" gradientTransform="translate(1110 420) rotate(90) scale(420)">
      <stop stop-color="#3E76FF" stop-opacity="0.70"/>
      <stop offset="1" stop-color="#3E76FF" stop-opacity="0"/>
    </radialGradient>
    <radialGradient id="haloB" cx="0" cy="0" r="1" gradientUnits="userSpaceOnUse" gradientTransform="translate(520 1020) rotate(90) scale(380)">
      <stop stop-color="#FFD55C" stop-opacity="0.46"/>
      <stop offset="1" stop-color="#FFD55C" stop-opacity="0"/>
    </radialGradient>
    <linearGradient id="glass" x1="240" y1="1700" x2="1360" y2="2280" gradientUnits="userSpaceOnUse">
      <stop stop-color="#FFFFFF" stop-opacity="0.16"/>
      <stop offset="1" stop-color="#FFFFFF" stop-opacity="0.02"/>
    </linearGradient>
    <filter id="blur" x="-30%" y="-30%" width="160%" height="160%">
      <feGaussianBlur stdDeviation="78"/>
    </filter>
    <linearGradient id="blueBody" x1="482" y1="330" x2="1024" y2="912" gradientUnits="userSpaceOnUse">
      <stop stop-color="#55B3FF"/>
      <stop offset="1" stop-color="#296BFF"/>
    </linearGradient>
    <linearGradient id="yellowBody" x1="1096" y1="874" x2="536" y2="1460" gradientUnits="userSpaceOnUse">
      <stop stop-color="#FFE384"/>
      <stop offset="1" stop-color="#F5BE2E"/>
    </linearGradient>
  </defs>

  <rect width="1600" height="2400" rx="96" fill="url(#bg)"/>
  <rect x="56" y="56" width="1488" height="2288" rx="84" stroke="#FFFFFF" stroke-opacity="0.12"/>
  <rect x="92" y="130" width="284" height="46" rx="23" fill="#FFFFFF" fill-opacity="0.08" stroke="#FFFFFF" stroke-opacity="0.16"/>
  <circle cx="146" cy="153" r="7" fill="#5FB7FF"/>
  <rect x="168" y="147" width="116" height="12" rx="6" fill="#FFFFFF" fill-opacity="0.38"/>
  <rect x="1080" y="146" width="154" height="18" rx="9" fill="#FFFFFF" fill-opacity="0.10"/>
  <rect x="1256" y="146" width="172" height="18" rx="9" fill="#FFFFFF" fill-opacity="0.06"/>

  <circle cx="1110" cy="420" r="420" fill="url(#haloA)" filter="url(#blur)"/>
  <circle cx="520" cy="1020" r="380" fill="url(#haloB)" filter="url(#blur)"/>

  <g opacity="0.1" stroke="#FFFFFF" stroke-width="2">
    <path d="M180 320H1420"/>
    <path d="M180 700H1420"/>
    <path d="M180 1080H1420"/>
    <path d="M180 1460H1420"/>
    <path d="M180 1840H1420"/>
    <path d="M320 220V2180"/>
    <path d="M640 220V2180"/>
    <path d="M960 220V2180"/>
    <path d="M1280 220V2180"/>
  </g>

  <g transform="translate(228 320)">
    <rect x="0" y="90" width="1144" height="1028" rx="64" fill="#0B111A" fill-opacity="0.8" stroke="#FFFFFF" stroke-opacity="0.12"/>
    <rect x="64" y="154" width="248" height="34" rx="17" fill="#5FB7FF" fill-opacity="0.44"/>
    <rect x="64" y="228" width="468" height="18" rx="9" fill="#FFFFFF" fill-opacity="0.18"/>
    <rect x="64" y="266" width="332" height="18" rx="9" fill="#FFFFFF" fill-opacity="0.08"/>
    <rect x="84" y="334" width="976" height="684" rx="42" fill="#091019" stroke="#FFFFFF" stroke-opacity="0.08"/>

    <path d="M468 80h258c110 0 198 88 198 198v120c0 86-70 156-156 156H576c-40 0-72 32-72 72v52c0 86 70 156 156 156h120" stroke="url(#blueBody)" stroke-width="126" stroke-linecap="round" stroke-linejoin="round"/>
    <path d="M676 1012H418c-110 0-198-88-198-198V694c0-86 70-156 156-156h192c40 0 72-32 72-72v-52c0-86-70-156-156-156H364" stroke="url(#yellowBody)" stroke-width="126" stroke-linecap="round" stroke-linejoin="round"/>
    <circle cx="744" cy="264" r="26" fill="#E9F6FF"/>
    <circle cx="420" cy="828" r="26" fill="#3F3414"/>
    <circle cx="744" cy="264" r="10" fill="#296BFF"/>
    <circle cx="420" cy="828" r="10" fill="#F5BE2E"/>

    <rect x="172" y="730" width="774" height="176" rx="30" fill="#060B12" fill-opacity="0.88" stroke="#FFFFFF" stroke-opacity="0.06"/>
    <path d="M250 816h130M250 856h226M250 896h174" stroke="#FFFFFF" stroke-opacity="0.16" stroke-width="18" stroke-linecap="round"/>
    <path d="M664 778h162M664 824h126M664 870h146" stroke="#5FB7FF" stroke-opacity="0.52" stroke-width="16" stroke-linecap="round"/>
  </g>

  <rect x="104" y="1700" width="1392" height="540" rx="52" fill="#050505" fill-opacity="0.76"/>
  <rect x="104" y="1700" width="1392" height="540" rx="52" fill="url(#glass)"/>
  <rect x="152" y="1784" width="360" height="18" rx="9" fill="#FFFFFF" fill-opacity="0.10"/>
  <rect x="152" y="1822" width="250" height="18" rx="9" fill="#FFD15C" fill-opacity="0.46"/>
  <rect x="1160" y="1786" width="208" height="16" rx="8" fill="#FFFFFF" fill-opacity="0.10"/>
  <rect x="1160" y="1822" width="280" height="16" rx="8" fill="#FFFFFF" fill-opacity="0.06"/>
</svg>
